HIERARCHY
ROOT Hips
{
  OFFSET -31.5692 30.0904 122.763
  CHANNELS 6 Xposition Yposition Zposition Zrotation Xrotation Yrotation
  JOINT LeftUpLeg
  {
    OFFSET 8.64259 1.95398 -2.38835
    CHANNELS 3 Zrotation Xrotation Yrotation
    JOINT LeftLeg
    {
      OFFSET 43.7702 0 0
      CHANNELS 3 Zrotation Xrotation Yrotation
      JOINT LeftFoot
      {
        OFFSET 40.6238 0 0
        CHANNELS 3 Zrotation Xrotation Yrotation
        JOINT LeftToeBase
        {
          OFFSET 12.7242 0 0
          CHANNELS 3 Zrotation Xrotation Yrotation
          End Site
          {
            OFFSET 0 0 0
          }
        }
      }
    }
  }
  JOINT RightUpLeg
  {
    OFFSET -8.2249 1.95398 -2.59336
    CHANNELS 3 Zrotation Xrotation Yrotation
    JOINT RightLeg
    {
      OFFSET 43.5653 0 0
      CHANNELS 3 Zrotation Xrotation Yrotation
      JOINT RightFoot
      {
        OFFSET 40.6238 0 0
        CHANNELS 3 Zrotation Xrotation Yrotation
        JOINT RightToeBase
        {
          OFFSET 12.7242 0 0
          CHANNELS 3 Zrotation Xrotation Yrotation
          End Site
          {
            OFFSET 0 0 0
          }
        }
      }
    }
  }
  JOINT Spine
  {
    OFFSET 0.165834 0.87714 6.61349
    CHANNELS 3 Zrotation Xrotation Yrotation
    JOINT Spine1
    {
      OFFSET 7.38963 1.71661e-005 0
      CHANNELS 3 Zrotation Xrotation Yrotation
      JOINT Spine2
      {
        OFFSET 11.9445 1.14441e-005 0
        CHANNELS 3 Zrotation Xrotation Yrotation
        JOINT Spine3
        {
          OFFSET 14.7254 4.19617e-005 0
          CHANNELS 3 Zrotation Xrotation Yrotation
          JOINT Spine4
          {
            OFFSET 10.9679 0 0
            CHANNELS 3 Zrotation Xrotation Yrotation
            JOINT RightShoulder
            {
              OFFSET 2.46616 -1.6653 3.69651
              CHANNELS 3 Zrotation Xrotation Yrotation
              JOINT RightArm
              {
                OFFSET 13.0012 0 0
                CHANNELS 3 Zrotation Xrotation Yrotation
                JOINT RightForeArm
                {
                  OFFSET 28.7848 1.62311e-005 0
                  CHANNELS 3 Zrotation Xrotation Yrotation
                  JOINT RightHand
                  {
                    OFFSET 26.5688 1.62095e-005 0
                    CHANNELS 3 Zrotation Xrotation Yrotation
                    End Site
                    {
                      OFFSET 0 0 0
                    }
                  }
                }
              }
            }
            JOINT LeftShoulder
            {
              OFFSET 2.38034 -1.29275 -3.7523
              CHANNELS 3 Zrotation Xrotation Yrotation
              JOINT LeftArm
              {
                OFFSET 16.3182 6.07031e-005 0
                CHANNELS 3 Zrotation Xrotation Yrotation
                JOINT LeftForeArm
                {
                  OFFSET 27.0901 0 0
                  CHANNELS 3 Zrotation Xrotation Yrotation
                  JOINT LeftHand
                  {
                    OFFSET 24.5451 1.51738e-005 0
                    CHANNELS 3 Zrotation Xrotation Yrotation
                    End Site
                    {
                      OFFSET 0 0 0
                    }
                  }
                }
              }
            }
            JOINT Neck
            {
              OFFSET 5.0226 -0.0266342 0
              CHANNELS 3 Zrotation Xrotation Yrotation
              JOINT Head
              {
                OFFSET 6.69364 2.86102e-005 0
                CHANNELS 3 Zrotation Xrotation Yrotation
                End Site
                {
                  OFFSET 0 0 0
                }
              }
            }
          }
        }
      }
    }
  }
}
MOTION
Frames:	18
Frame Time:	0.0416667
35.843 101.58 19.7826 -150.413 -82.9637 -151.582 -172.63 -4.31347 89.8346 -11.8176 1.10776 -0.182685 70.105 6.13068 -1.9175 20.0858 -7.43034 7.2024 170.914 -3.33125 86.6855 -12.4012 -9.25659 -0.780216 66.6327 -4.00279 1.16725 27.4797 -0.0156412 2.90798 0.301991 7.43405 -89.9772 12.006 0.611218 -0.0209786 0.335207 0.609702 -0.0478576 -22.2011 0.589254 0.163702 -2.18839 0.589264 0.163704 92.257 -28.2941 -102.814 41.7549 -9.7656 -5.34932 7.21664 -25.8023 -14.3182 -21.9661 0.0781321 -10.675 -86.5529 -50.3892 83.96 -26.5228 13.8993 -12.5299 -4.41917 6.75651 -0.0068454 0.700084 -0.0377044 -13.9812 6.40059 -1.83371 -1.8508 -7.27124 -1.52534 2.57052 
35.8576 101.601 19.7011 -150.917 -83.1854 -152.105 -172.807 -4.11677 89.7135 -11.7143 0.95024 -0.0406517 70.033 5.94061 -2.35703 19.692 -7.67078 7.21992 171.042 -3.24183 86.7703 -12.2224 -9.21412 -0.852959 66.3392 -3.84248 0.95345 27.0478 0.191209 2.82483 0.295266 7.40063 -90.0153 12.073 0.579759 -0.094264 0.402146 0.575056 -0.119697 -22.134 0.581287 0.0843493 -2.1214 0.581285 0.0843382 92.4458 -27.9852 -102.528 41.7227 -9.64522 -5.32754 7.22584 -28.2026 -13.9374 -23.093 0.0306839 -10.7231 -87.0165 -51.4206 83.4322 -25.2248 14.9262 -12.2618 -5.40022 4.77798 -0.47459 2.87349 -0.373603 -15.0258 5.66102 -1.92063 -1.03654 -6.29632 -1.73665 1.79472 
35.8943 101.589 19.6561 -150.5 -83.2831 -151.716 -172.938 -3.98034 89.5739 -11.7737 1.31601 0.00521511 69.8867 5.85131 -2.17879 18.9788 -7.9173 6.85096 171.032 -3.06229 86.7334 -12.2706 -8.8705 -0.81507 66.4919 -3.87273 1.22428 26.9166 0.22959 2.91304 0.310395 7.41139 -90.0346 12.0516 0.600757 -0.134906 0.380825 0.59424 -0.161228 -22.1554 0.613524 0.0518893 -2.1428 0.613527 0.0518824 92.569 -27.8894 -102.305 41.5104 -10.0186 -5.97683 8.05766 -30.421 -12.7426 -22.2173 0.0745297 -11.7506 -87.1569 -51.8445 83.2926 -25.0628 14.539 -12.6013 -5.13382 4.9834 -0.231311 1.94785 -0.288106 -15.4056 5.76786 -1.91398 -0.620447 -6.08366 -1.8018 1.6614 
35.9238 101.598 19.6149 -149.351 -83.2662 -150.636 -172.914 -3.95395 89.5092 -11.6834 1.06009 -0.085186 69.8984 5.85432 -2.35268 18.4492 -8.23994 6.87121 170.999 -2.95331 86.6542 -12.2965 -9.12644 -0.836116 66.5733 -3.94015 1.05347 26.668 0.331009 2.9466 0.318093 7.4124 -89.9944 12.0495 0.635107 -0.058255 0.378726 0.631928 -0.0861666 -22.1577 0.623253 0.135315 -2.145 0.623259 0.135317 92.4484 -28.2038 -102.45 41.497 -10.0214 -6.16077 8.33005 -29.6011 -12.3013 -23.0084 0.121185 -11.6203 -86.8902 -51.0827 83.5658 -25.8776 14.091 -12.6525 -4.72089 5.49023 -0.111115 2.16647 -0.280925 -15.1735 5.72288 -1.91897 -0.936843 -6.14683 -1.74817 1.66217 
35.9322 101.598 19.6159 -149.263 -83.2908 -150.464 -172.866 -3.85701 89.636 -11.8084 0.984233 -0.0856877 69.8846 5.77057 -2.59241 18.6849 -7.90924 6.47045 171.049 -2.97784 86.7388 -12.1928 -9.06036 -0.82229 66.4277 -3.83669 1.1943 26.8423 0.268385 2.88421 0.314632 7.41284 -90.0042 12.0486 0.623582 -0.0765576 0.377768 0.619606 -0.103931 -22.1586 0.617757 0.114402 -2.14591 0.617758 0.114401 92.4631 -28.1649 -102.432 41.4645 -9.72146 -6.21945 8.12003 -30.3294 -12.2493 -23.5355 0.015259 -11.04 -86.7327 -51.0478 83.7947 -25.9453 13.7586 -12.7783 -4.64018 6.27093 -0.00704352 2.11657 -0.269601 -15.6464 5.61647 -1.8517 -0.970725 -6.43351 -1.68652 1.88592 
35.9537 101.58 19.6483 -149.628 -83.2245 -150.747 -172.831 -3.93422 89.6728 -11.8144 1.43596 -0.0868377 69.937 5.93282 -1.98556 18.7932 -8.09876 7.00163 171.048 -3.09423 86.7802 -12.1755 -9.11793 -0.807254 66.3594 -3.81899 1.15557 27.0825 0.189923 2.76019 0.309211 7.43267 -90.0546 12.0091 0.589033 -0.173033 0.338291 0.580853 -0.198806 -22.1979 0.613801 0.0120045 -2.18529 0.613804 0.0119973 92.4815 -27.9847 -102.454 41.2209 -9.6007 -6.24355 8.22994 -29.3543 -12.0241 -22.4278 0.189423 -12.1457 -86.8615 -51.7625 83.7154 -24.7327 14.978 -12.6723 -5.58864 4.69418 -0.371512 2.86399 -0.389905 -15.2867 5.57813 -1.80538 -0.36042 -6.49282 -1.74768 1.52498 
35.9991 101.592 19.6671 -150.149 -83.403 -151.307 -172.815 -3.77809 89.6659 -11.8852 1.25317 -0.139364 69.9998 5.90632 -2.38296 18.5971 -8.03324 6.62168 171.019 -2.98829 86.7428 -12.1796 -9.02127 -0.784944 66.4132 -3.85477 1.08262 26.8429 0.26369 2.90645 0.319336 7.41984 -90.012 12.0346 0.629263 -0.092676 0.363788 0.624571 -0.120293 -22.1726 0.628022 0.100735 -2.15992 0.62802 0.100731 92.5789 -28.4188 -102.111 41.1039 -9.75566 -6.35018 8.32068 -27.685 -12.149 -23.2348 0.25013 -11.8535 -86.8423 -50.8923 83.6068 -26.0348 13.5778 -12.8466 -4.52288 6.52087 0.0196925 1.80034 -0.2358 -15.8687 5.5767 -1.96179 -0.944756 -6.69889 -1.79744 1.62326 
36.0397 101.576 19.7036 -150.559 -83.3247 -151.582 -172.714 -3.69895 89.8068 -12.2809 1.42886 -0.156038 70.1702 5.95829 -2.27583 18.9267 -7.90214 6.75363 170.976 -3.2402 86.786 -11.8621 -9.2267 -0.71547 66.0356 -3.65675 1.45644 27.517 0.187917 1.87002 0.296425 7.42477 -90.0483 12.0249 0.566575 -0.158268 0.354097 0.559063 -0.183053 -22.1821 0.587943 0.0193361 -2.16942 0.587952 0.0193362 92.378 -28.0971 -102.631 41.2713 -9.42033 -6.08575 8.06772 -27.6089 -12.205 -23.4491 0.28022 -11.9489 -86.6585 -51.1124 83.9146 -26.26 13.3514 -12.6926 -4.31882 6.36507 0.0219289 2.0268 -0.25394 -15.5311 5.55502 -1.77057 -0.402002 -6.71732 -1.69912 1.17234 
36.0981 101.562 19.7112 -150.516 -83.5442 -151.76 -172.896 -3.57265 89.5054 -12.1357 1.38124 -0.141295 70.0463 5.96975 -2.17352 18.6454 -7.97279 6.55515 170.83 -2.85497 86.4895 -12.0936 -8.98752 -0.672875 66.1218 -3.60502 1.85759 27.805 0.0200485 2.0588 0.271973 7.4049 -90.0164 12.0644 0.532979 -0.0911319 0.393567 0.528452 -0.114504 -22.1424 0.535726 0.0732774 -2.12981 0.535723 0.0732674 92.2239 -28.269 -102.89 41.1312 -9.33444 -5.99455 7.93134 -28.6204 -12.3471 -23.5534 0.196052 -11.6763 -86.5512 -51.178 84.0847 -25.1569 14.9391 -12.493 -5.41691 4.61178 -0.414505 2.54718 -0.346161 -14.9852 5.43606 -1.70365 -0.553789 -6.63875 -1.60631 1.22692 
36.1103 101.561 19.7825 -149.54 -83.3719 -150.711 -172.783 -3.77665 89.6037 -12.0829 1.33054 -0.207107 70.1429 6.00966 -2.1804 18.7645 -7.97457 6.70569 170.883 -3.00084 86.5503 -12.0913 -9.16816 -0.73668 66.0233 -3.54418 2.00035 28.0039 0.0240851 1.61455 0.293763 7.41188 -90.0328 12.0505 0.568574 -0.127559 0.379711 0.562413 -0.15247 -22.1564 0.58063 0.0492224 -2.14379 0.580624 0.0492177 92.2544 -28.1282 -102.875 41.3408 -9.34389 -5.99518 7.87057 -29.7887 -12.3898 -22.8063 0.173441 -12.0446 -86.7401 -50.9771 83.772 -26.3477 13.3878 -12.4008 -4.24476 5.90797 0.00192224 2.31411 -0.275221 -14.8591 5.08063 -1.86996 -0.503927 -6.59506 -1.77918 1.15813 
36.1336 101.577 19.8022 -149.867 -83.4344 -151.082 -172.748 -3.86147 89.5845 -11.8219 1.443 -0.28076 70.0379 6.06342 -2.00793 18.5207 -8.01824 6.49669 170.785 -2.9266 86.485 -12.2646 -9.72251 -0.699659 66.2716 -3.79133 1.05865 27.2888 0.206553 2.259 0.284729 7.4121 -90.057 12.0502 0.539209 -0.172753 0.379311 0.531092 -0.196324 -22.1567 0.566202 -0.00270416 -2.14409 0.566203 -0.00270946 92.2378 -27.8508 -103.003 41.4887 -9.20314 -5.99546 7.83851 -30.004 -12.2342 -22.8868 0.142487 -11.8941 -86.7301 -51.6388 83.8905 -25.273 14.35 -12.457 -5.04407 4.98034 -0.299972 2.62915 -0.338963 -14.8838 4.9815 -1.70226 -0.0433642 -6.66494 -1.69256 0.895952 
36.1109 101.567 19.8362 -149.411 -83.4531 -150.601 -172.845 -3.82535 89.5459 -11.864 1.28164 -0.167635 70.1239 6.00635 -2.2281 18.5784 -8.15852 6.86092 170.865 -2.98214 86.5492 -12.0717 -9.26254 -0.72111 66.1516 -3.66003 1.63193 27.6307 0.124798 1.9275 0.281514 7.41238 -90.0413 12.0495 0.540217 -0.141518 0.37868 0.533469 -0.165169 -22.1574 0.557767 0.0273841 -2.14473 0.557773 0.0273837 92.0918 -28.1147 -103.215 41.3907 -9.04117 -5.98191 8.00931 -28.3663 -11.8346 -24.0679 0.254203 -11.808 -86.8036 -51.2148 83.7152 -25.5947 14.2393 -12.3212 -5.01172 4.66907 -0.272611 2.6737 -0.364672 -15.075 4.76546 -1.71016 -0.487254 -6.36102 -1.62212 1.06529 
36.1164 101.582 19.8665 -148.417 -83.3878 -149.634 -172.814 -3.9743 89.5413 -11.6135 1.22646 -0.207955 70.0289 5.97473 -2.16221 18.5577 -8.08841 6.68923 170.819 -2.93383 86.4828 -12.1627 -9.94415 -0.736113 65.9743 -3.5863 1.31859 27.9502 0.0205408 1.74657 0.298219 7.41477 -90.0097 12.0447 0.58837 -0.0836249 0.373836 0.584123 -0.109449 -22.1624 0.586303 0.097084 -2.14972 0.586307 0.0970758 91.9231 -28.4937 -103.432 41.2169 -9.00704 -5.84152 8.06228 -29.8414 -11.7541 -23.0521 0.261119 -12.5185 -86.8584 -50.6776 83.5486 -26.3724 13.4218 -12.2888 -4.46167 5.54151 -0.00685617 2.29067 -0.304952 -15.3682 4.20558 -1.83492 -1.07555 -5.93345 -1.64637 1.32183 
36.109 101.571 19.8873 -147.957 -83.4217 -149.077 -172.816 -3.8652 89.6114 -11.7657 1.16259 -0.158981 70.0618 5.89813 -2.29346 18.7777 -8.03738 6.85331 170.926 -3.0701 86.5966 -11.8085 -9.17625 -0.739569 65.9803 -3.56616 1.92854 28.016 -0.0509631 1.94831 0.302891 7.43438 -90.055 12.0056 0.576266 -0.172504 0.334814 0.568114 -0.197712 -22.2014 0.601466 0.00866624 -2.18872 0.601466 0.00866496 92.0154 -28.2271 -103.334 41.0825 -9.07535 -5.8485 7.8278 -30.1154 -12.199 -23.1587 0.199626 -12.1838 -86.8723 -51.3178 83.6297 -25.4178 14.3174 -12.3864 -5.13319 4.52856 -0.163778 2.73216 -0.376635 -15.1385 4.18196 -1.71246 -0.671594 -6.1007 -1.60106 1.40779 
36.1022 101.579 19.9371 -147.561 -83.189 -148.312 -172.586 -3.97337 90.0161 -11.9434 1.14935 -0.155718 70.2404 5.90556 -2.33862 18.793 -7.9607 6.71141 171.112 -3.5106 86.9921 -11.4785 -9.2682 -0.75858 65.9563 -3.69536 1.51437 27.5995 0.0470737 2.34818 0.343879 7.47502 -90.0623 11.9246 0.654435 -0.194862 0.253754 0.645223 -0.223486 -22.2827 0.682743 0.0108368 -2.27008 0.682741 0.010834 92.0503 -28.5593 -103.149 41.0365 -9.09542 -5.92325 7.81643 -28.1723 -12.3164 -23.3548 0.276876 -12.1089 -86.7773 -50.6489 83.6651 -26.2919 13.5217 -12.5133 -4.56247 5.45056 0.0204002 2.23012 -0.29727 -15.2211 4.2688 -1.80355 -1.1484 -6.55753 -1.62272 1.82201 
36.1287 101.578 19.9853 -146.972 -83.279 -147.871 -172.736 -4.02871 89.7875 -11.7116 0.998498 -0.0989337 70.2339 5.93591 -2.26089 18.6936 -8.02273 6.71901 171.013 -3.3927 86.8113 -11.4756 -9.49454 -0.757884 65.8938 -3.61639 1.65468 27.6826 0.100415 1.92921 0.322347 7.48283 -90.085 11.909 0.600969 -0.234221 0.238174 0.59008 -0.260448 -22.2981 0.643581 -0.0427617 -2.28543 0.643574 -0.0427769 92.2118 -27.9136 -103.036 41.2394 -9.34955 -6.06854 8.06409 -28.8837 -12.0888 -23.1401 0.226634 -12.0433 -86.7412 -51.5164 83.8547 -25.6428 13.601 -12.4082 -4.68015 5.27017 -0.158151 2.42762 -0.322931 -15.1274 4.01368 -1.63621 -0.201809 -6.49575 -1.60042 0.89831 
36.1204 101.588 20.0769 -147.37 -83.2386 -148.356 -172.713 -4.29982 89.7423 -11.3904 1.00202 -0.138438 70.1596 5.89476 -2.3667 18.5578 -8.08628 6.68482 171.085 -3.67014 86.7931 -11.1607 -9.03861 -0.898493 65.8741 -3.56658 2.04938 27.9151 0.0265136 1.79326 0.330313 7.52143 -90.0493 11.8316 0.633716 -0.165834 0.160814 0.625808 -0.193569 -22.3756 0.654255 0.0323009 -2.36293 0.654258 0.0322998 92.1698 -28.2831 -102.997 41.2374 -8.89837 -6.08496 7.62881 -29.7943 -12.1976 -23.0933 0.192137 -12.0771 -86.9278 -51.0708 83.5082 -24.8582 15.1326 -12.1184 -5.91299 3.56975 -1.01154 2.84645 -0.425873 -15.2333 3.46964 -1.80834 -1.29679 -6.37396 -1.60766 1.77329 
36.137 101.591 20.1009 -145.69 -83.3238 -146.661 -172.77 -4.20871 89.6827 -11.2989 0.952935 -0.120834 70.1635 5.95278 -2.16908 18.4281 -8.26091 6.88919 171.137 -3.51457 86.8437 -11.1313 -9.32523 -0.917925 66.081 -3.77738 1.27124 27.2936 0.121234 2.6423 0.296548 7.56456 -90.0057 11.7451 0.587152 -0.0732931 0.0742496 0.583363 -0.0990691 -22.462 0.582037 0.106569 -2.4493 0.58204 0.106575 91.679 -28.9573 -103.771 40.2506 -8.99745 -6.18158 7.87294 -27.0389 -12.2217 -23.4489 0.327867 -12.0886 -86.4693 -50.7535 84.141 -25.6282 12.9811 -12.5074 -3.81805 5.02952 0.0727015 1.33298 -0.252589 -16.3102 2.59482 -1.5827 -1.64745 -6.57852 -1.33661 1.57134 
